<svg viewBox="0 0 100 100" xmlns="http://www.w3.org/2000/svg">
  <defs>
    <!-- Gradiente dinamico per il background -->
    <radialGradient id="bgGradient" cx="0.3" cy="0.3">
      <stop offset="0%" stop-color="#6366f1"/>
      <stop offset="100%" stop-color="#1e40af"/>
    </radialGradient>
    
    <!-- Gradiente per l'effetto AI -->
    <linearGradient id="aiGradient" x1="0" y1="0" x2="1" y2="1">
      <stop offset="0%" stop-color="#00ff88"/>
      <stop offset="100%" stop-color="#00d4aa"/>
    </linearGradient>
    
    <!-- Gradiente per l'effetto umano -->
    <linearGradient id="humanGradient" x1="0" y1="0" x2="1" y2="1">
      <stop offset="0%" stop-color="#ff6b6b"/>
      <stop offset="100%" stop-color="#ee5a52"/>
    </linearGradient>
  </defs>
  
  <!-- Background con gradiente -->
  <circle cx="50" cy="50" r="48" fill="url(#bgGradient)"/>
  
  <!-- Effetto glow esterno -->
  <circle cx="50" cy="50" r="46" fill="none" stroke="#ffffff" stroke-width="0.5" opacity="0.3"/>
  
  <!-- Simbolo principale: DNA/Doppia elica che si trasforma -->
  <g transform="translate(50,50)">
    <!-- Lato AI: linee precise e geometriche -->
    <g transform="rotate(-15)">
      <!-- Spirale AI (sinistra) -->
      <path d="M -20,-15 Q -10,-20 0,-15 Q 10,-10 20,-15" 
            stroke="url(#aiGradient)" stroke-width="4" fill="none" opacity="0.9"/>
      <path d="M -20,-5 Q -10,0 0,-5 Q 10,0 20,-5" 
            stroke="url(#aiGradient)" stroke-width="4" fill="none" opacity="0.7"/>
      <path d="M -20,5 Q -10,10 0,5 Q 10,10 20,5" 
            stroke="url(#aiGradient)" stroke-width="4" fill="none" opacity="0.5"/>
      
      <!-- Punti di connessione AI -->
      <circle cx="-15" cy="-15" r="2" fill="url(#aiGradient)"/>
      <circle cx="0" cy="-10" r="2" fill="url(#aiGradient)"/>
      <circle cx="15" cy="-5" r="2" fill="url(#aiGradient)"/>
    </g>
    
    <!-- Lato Umano: curve organiche -->
    <g transform="rotate(15)">
      <!-- Spirale Umana (destra) -->
      <path d="M -20,15 Q -5,8 0,15 Q 5,22 20,15" 
            stroke="url(#humanGradient)" stroke-width="4" fill="none" opacity="0.9"/>
      <path d="M -20,5 Q -5,12 0,5 Q 5,-2 20,5" 
            stroke="url(#humanGradient)" stroke-width="4" fill="none" opacity="0.7"/>
      <path d="M -20,-5 Q -5,2 0,-5 Q 5,-12 20,-5" 
            stroke="url(#humanGradient)" stroke-width="4" fill="none" opacity="0.5"/>
      
      <!-- Punti di connessione Umani -->
      <circle cx="-10" cy="12" r="2.5" fill="url(#humanGradient)"/>
      <circle cx="5" cy="8" r="2.5" fill="url(#humanGradient)"/>
      <circle cx="15" cy="2" r="2.5" fill="url(#humanGradient)"/>
    </g>
    
    <!-- Punto centrale "ORIGO" - origine dell'analisi -->
    <circle cx="0" cy="0" r="5" fill="#ffffff" opacity="0.95"/>
    <circle cx="0" cy="0" r="3" fill="#1e40af"/>
    <circle cx="0" cy="0" r="1.5" fill="#ffffff"/>
  </g>
  
  <!-- Particelle di analisi in movimento -->
  <circle cx="25" cy="25" r="1.5" fill="#00ff88" opacity="0.6">
    <animate attributeName="opacity" values="0.6;1;0.6" dur="2s" repeatCount="indefinite"/>
  </circle>
  <circle cx="75" cy="75" r="1.5" fill="#ff6b6b" opacity="0.6">
    <animate attributeName="opacity" values="1;0.6;1" dur="2s" repeatCount="indefinite"/>
  </circle>
  <circle cx="75" cy="25" r="1" fill="#ffffff" opacity="0.4">
    <animate attributeName="opacity" values="0.4;0.8;0.4" dur="3s" repeatCount="indefinite"/>
  </circle>
  <circle cx="25" cy="75" r="1" fill="#ffffff" opacity="0.4">
    <animate attributeName="opacity" values="0.8;0.4;0.8" dur="3s" repeatCount="indefinite"/>
  </circle>
  
  <!-- Ring di scansione sottile -->
  <circle cx="50" cy="50" r="35" fill="none" stroke="#ffffff" stroke-width="0.5" opacity="0.2">
    <animate attributeName="r" values="30;40;30" dur="4s" repeatCount="indefinite"/>
    <animate attributeName="opacity" values="0.2;0.1;0.2" dur="4s" repeatCount="indefinite"/>
  </circle>
</svg>